<svg xmlns="http://www.w3.org/2000/svg" width="2417.567" height="826.415" viewBox="0 0 2417.567 826.415">
  <g id="Group_7" data-name="Group 7" transform="translate(-9221.703 9343.857)">
    <g id="g542" transform="translate(7315 -7756.671)">
      <path id="path544" d="M3105.75-872.115H2811.383l-14.606-149.972h323.579L3105.75-872.115" fill="#00a3fe"/>
    </g>
    <g id="g546" transform="translate(7315 -7756.671)">
      <path id="path548" d="M3131.9-1002.61H2783.41v-36.026H3131.9v36.026" fill="#016eb9"/>
    </g>
    <g id="g550" transform="translate(7315 -7756.671)">
      <path id="path552" d="M3105.75-823.529H2811.383L2796.777-973.5h323.579L3105.75-823.529" fill="#00a3fe"/>
    </g>
    <g id="g554" transform="translate(7315 -7756.671)">
      <path id="path556" d="M3131.9-954.023H2783.41V-990.05H3131.9v36.026" fill="#016eb9"/>
    </g>
    <g id="g558" transform="translate(7315 -7756.671)">
      <path id="path560" d="M3105.75-773.7H2811.383l-14.606-149.972h323.579L3105.75-773.7" fill="#00a3fe"/>
    </g>
    <g id="g562" transform="translate(7315 -7756.671)">
      <path id="path564" d="M3131.9-904.211H2783.41v-36.026H3131.9v36.026" fill="#016eb9"/>
    </g>
    <g id="g566" transform="translate(7315 -7756.671)">
      <path id="path568" d="M2444.485-1309.667v536.254H2895.72v-536.254H2444.485" fill="#b8c1c9"/>
    </g>
    <g id="g570" transform="translate(7315 -7756.671)">
      <path id="path572" d="M2606.449-1309.669v536.255h391.288v-536.255H2606.449" fill="#d5d6da"/>
    </g>
    <g id="g574" transform="translate(7315 -7756.671)">
      <path id="path576" d="M2997.737-1239.789H2606.449v-2.626h391.288v2.626" fill="#657285"/>
    </g>
    <g id="g578" transform="translate(7315 -7756.671)">
      <path id="path580" d="M2997.737-838.228H2606.449v-5.067h391.288v5.067" fill="#657285"/>
    </g>
    <g id="g582" transform="translate(7315 -7756.671)">
      <path id="path584" d="M2910.276-1274.72a21.741,21.741,0,0,1,21.745-21.747,21.737,21.737,0,0,1,21.727,21.747,21.734,21.734,0,0,1-21.727,21.733,21.738,21.738,0,0,1-21.745-21.733" fill="#657285"/>
    </g>
    <g id="g586" transform="translate(7315 -7756.671)">
      <path id="path588" d="M2696.125-1252.981h-58a15.737,15.737,0,0,1-15.688-15.694v-12.093a15.735,15.735,0,0,1,15.688-15.692h58a15.747,15.747,0,0,1,15.689,15.692v12.093a15.748,15.748,0,0,1-15.689,15.694" fill="#657285"/>
    </g>
    <g id="g590" transform="translate(7315 -7756.671)">
      <path id="path592" d="M2885.658-1255.919h-55.1a6.692,6.692,0,0,1-6.69-6.679v-20.654a6.691,6.691,0,0,1,6.69-6.667h55.1a6.7,6.7,0,0,1,6.672,6.667v20.654a6.7,6.7,0,0,1-6.672,6.679" fill="#657285"/>
    </g>
    <g id="g594" transform="translate(7315 -7756.671)">
      <path id="path596" d="M2828.407-1200.547c-78.548,0-142.207,67.347-142.207,150.428s63.659,150.413,142.207,150.413,142.207-67.347,142.207-150.413-63.659-150.428-142.207-150.428" fill="#657285"/>
    </g>
    <g id="g598" transform="translate(7315 -7756.671)">
      <path id="path600" d="M2805.207-1200.541c-74.626,0-135.11,67.346-135.11,150.427,0,83.065,60.484,150.413,135.11,150.413s135.11-67.348,135.11-150.413c0-83.081-60.484-150.427-135.11-150.427" fill="#00a3fe"/>
    </g>
    <g id="g602" transform="translate(7315 -7756.671)">
      <path id="path604" d="M2914.172-1050.119a132.361,132.361,0,0,1-9.136,48.652c-16.823,42.774-55.191,72.627-99.833,72.627-60.161,0-108.933-54.293-108.933-121.28,0-49.695,26.818-92.386,65.238-111.134a99.222,99.222,0,0,1,43.695-10.16c60.179,0,108.969,54.293,108.969,121.294" fill="#d5d6da"/>
    </g>
    <g id="g606" transform="translate(7315 -7756.671)">
      <path id="path608" d="M2045.693-1309.664v536.251h451.221v-536.251H2045.693" fill="#b8c1c9"/>
    </g>
    <g id="g610" transform="translate(7315 -7756.671)">
      <path id="path612" d="M2207.64-1309.659v536.25h391.291v-536.25H2207.64" fill="#d5d6da"/>
    </g>
    <g id="g614" transform="translate(7315 -7756.671)">
      <path id="path616" d="M2598.931-1239.779H2207.64v-2.626h391.291v2.626" fill="#657285"/>
    </g>
    <g id="g618" transform="translate(7315 -7756.671)">
      <path id="path620" d="M2598.931-838.222H2207.64v-5.065h391.291v5.065" fill="#657285"/>
    </g>
    <g id="g622" transform="translate(7315 -7756.671)">
      <path id="path624" d="M2511.483-1274.722a21.742,21.742,0,0,1,21.741-21.747,21.743,21.743,0,0,1,21.741,21.747,21.739,21.739,0,0,1-21.741,21.733,21.739,21.739,0,0,1-21.741-21.733" fill="#657285"/>
    </g>
    <g id="g626" transform="translate(7315 -7756.671)">
      <path id="path628" d="M2297.321-1252.981h-57.982a15.746,15.746,0,0,1-15.695-15.693v-12.093a15.745,15.745,0,0,1,15.695-15.693h57.982a15.748,15.748,0,0,1,15.708,15.693v12.093a15.749,15.749,0,0,1-15.708,15.693" fill="#657285"/>
    </g>
    <g id="g630" transform="translate(7315 -7756.671)">
      <path id="path632" d="M2486.839-1255.915h-55.087a6.7,6.7,0,0,1-6.685-6.68v-20.653a6.7,6.7,0,0,1,6.685-6.667h55.087a6.689,6.689,0,0,1,6.685,6.667v20.653a6.692,6.692,0,0,1-6.685,6.68" fill="#657285"/>
    </g>
    <g id="g634" transform="translate(7315 -7756.671)">
      <path id="path636" d="M2429.6-1200.543c-78.527,0-142.191,67.347-142.191,150.425s63.664,150.413,142.191,150.413c78.543,0,142.207-67.347,142.207-150.413s-63.664-150.425-142.207-150.425" fill="#657285"/>
    </g>
    <g id="g638" transform="translate(7315 -7756.671)">
      <path id="path640" d="M2406.427-1200.547c-74.625,0-135.123,67.348-135.123,150.428s60.5,150.412,135.123,150.412c74.609,0,135.106-67.346,135.106-150.412s-60.5-150.427-135.106-150.427" fill="#00a3fe"/>
    </g>
    <g id="g642" transform="translate(7315 -7756.671)">
      <path id="path644" d="M2515.366-1050.116a132.726,132.726,0,0,1-9.12,48.652c-16.836,42.774-55.2,72.628-99.843,72.628-60.153,0-108.948-54.293-108.948-121.279,0-49.695,26.851-92.388,65.261-111.134a99.144,99.144,0,0,1,43.687-10.16c60.184,0,108.963,54.295,108.963,121.295" fill="#d5d6da"/>
    </g>
    <g id="g646" transform="translate(7315 -7756.671)">
      <path id="path648" d="M3500.08-771.158h-21.924V-976c0-77.693-45.029-140.907-100.386-140.907S3277.385-1053.689,3277.385-976v204.838h-21.924V-976c0-94.665,54.863-171.665,122.309-171.665s122.31,77,122.31,171.665v204.838" fill="#364154"/>
    </g>
    <g id="g650" transform="translate(7315 -7756.671)">
      <path id="path652" d="M4086.741-1010.541c-6.059,0-10.961-6.881-10.961-15.375v-383.8c0-8.494,4.9-15.38,10.961-15.38s10.961,6.886,10.961,15.38v383.8c0,8.494-4.9,15.375-10.961,15.375" fill="#364154"/>
    </g>
    <g id="g654" transform="translate(7315 -7756.671)">
      <path id="path656" d="M3453.687-1010.546c-6.037,0-10.947-6.88-10.947-15.374v-383.8c0-8.5,4.91-15.383,10.947-15.383,6.058,0,10.968,6.887,10.968,15.383v383.8c0,8.494-4.91,15.374-10.968,15.374" fill="#364154"/>
    </g>
    <g id="g658" transform="translate(7315 -7756.671)">
      <path id="path660" d="M4176.137-1072.074H3392.445a11.832,11.832,0,0,1-11.844-11.839v-298.593a11.838,11.838,0,0,1,11.844-11.844h783.692a11.855,11.855,0,0,1,11.845,11.844v298.593a11.849,11.849,0,0,1-11.845,11.839" fill="#b8c1c9"/>
    </g>
    <g id="g662" transform="translate(7315 -7756.671)">
      <path id="path664" d="M4162.089-1072.08h-783.7a11.838,11.838,0,0,1-11.856-11.841v-298.591a11.845,11.845,0,0,1,11.856-11.846h783.7a11.84,11.84,0,0,1,11.831,11.846v298.591a11.833,11.833,0,0,1-11.831,11.841" fill="#d5d6da"/>
    </g>
    <g id="g666" transform="translate(7315 -7756.671)">
      <path id="path668" d="M4149.34-1006.653h-865.2c-7.586,0-13.721-8.624-13.721-19.265h0c0-10.641,6.135-19.268,13.721-19.268h865.2v38.533" fill="#d5d6da"/>
    </g>
    <g id="g670" transform="translate(7315 -7756.671)">
      <path id="path672" d="M4160.88-771.159h-21.928V-976c0-77.694-45.029-140.908-100.4-140.908s-100.4,63.215-100.4,140.908v204.84H3916.23V-976c0-94.666,54.883-171.668,122.325-171.668s122.325,77,122.325,171.668v204.84" fill="#364154"/>
    </g>
    <g id="g674" transform="translate(7315 -7756.671)">
      <path id="path676" d="M3733.849-1418.952c-3.954-5.67-9.016-16.047-13.741-35.238.579,1.89,7.834,25.885,19.453,38.268,42.812,19.265,130.6,92.375,131.689,108.695,0,0,19.092-48.527,19.5-48.865,0,0,38.473-69.041-24.323-95.078-31.892-13.232-35.387-36.18-37.34-56.287s-24.781-104.382-79.428-72.676c0,0-10-2.661-14.078-1.372,0,0,3.519.109,5.544,1.625-6.8.677-16.392,2.712-23.7,8.572-19.429,15.529-21.189,127.386,16.416,152.355" fill="#131f2d"/>
    </g>
    <g id="g678" transform="translate(7315 -7756.671)">
      <path id="path680" d="M3741.145-1435.016s-11.82,47.852-12.233,65.022c-.138,5.495-3.719,19.3-9.066,35.777-11.339,35.034-30.595,82.167-41.29,87.208-5.669,2.667-11.315,5.293-16.273,7.053-8.837,3.108-15.607,3.493-16.663-3.4-1.7-10.8,23.594-150.966,33.6-165.274,10.03-14.313,61.924-26.388,61.924-26.388" fill="#00a3fe"/>
    </g>
    <g id="g682" transform="translate(7315 -7756.671)">
      <path id="path684" d="M3720.32-845.463c2.49,2.826,2.787,5.987,1.553,9.372v.041c-2.284,6.24-9.73,13.214-18.41,20.187-1.1.893-2.079,1.706-2.947,2.453-.229.2-.457.4-.663.6-.183.148-.342.308-.525.455-8.086,7.467-5.025,9.173-19.575,24.294-16.56,17.238-27.958,17.547-31.2,15.987-2.764-1.348,2.809-10.48,9-20.76.3-.493.594-1,.891-1.494.845-1.373,1.645-2.759,2.467-4.134,7.241-12.359,5.391-18.172,3.677-36.573-1.393-14.959-23.275-83.546-23.275-83.546l31.749-5.48s9.571,54.627,20.1,63.039c5.619,4.481,11.923,4.548,17.337,7.866.388.228.777.468,1.142.708a41.117,41.117,0,0,1,8.68,6.987" fill="#ff7955"/>
    </g>
    <g id="g686" transform="translate(7315 -7756.671)">
      <path id="path688" d="M3720.32-845.463c2.49,2.826,2.787,5.987,1.553,9.372v.041c-2.787,6.24-10.051,13.172-18.456,20.118-1.073.907-2.033,1.747-2.9,2.522-.229.2-.457.4-.663.6-.183.148-.342.308-.525.455-8.086,7.467-5.025,9.173-19.575,24.294-16.56,17.238-27.958,17.547-31.2,15.987-2.764-1.348,2.809-10.48,9-20.76a70.58,70.58,0,0,0,29.533-21.761c9.982-12.734,16.628-29.093,23.412-38.56.388.228.777.468,1.142.708a41.123,41.123,0,0,1,8.68,6.987" fill="#131f2d"/>
    </g>
    <g id="g690" transform="translate(7315 -7756.671)">
      <path id="path692" d="M3464.213-863.85c-1.948,9.8-15.928,8.159-31.535,4.346s-11.9.719-34.1-1.734-28.944-10.745-29.63-14.04c-.6-2.933,10.384-3.973,22.158-5.32,1.477-.174,2.954-.347,4.453-.533,13.273-1.666,23.014-10.253,35.089-17.292,11.432-6.667,28.516-33.853,28.516-33.853l30.443,2.413s-15.992,24.279-22.158,34.84c-3.639,6.2-3.447,14.412-3,20.76a38.6,38.6,0,0,1-.235,10.413" fill="#ff7955"/>
    </g>
    <g id="g694" transform="translate(7315 -7756.671)">
      <path id="path696" d="M3432.689-859.505c-15.624-3.814-11.9.721-34.118-1.735-22.192-2.453-28.931-10.745-29.611-14.04-.595-2.931,10.373-3.971,22.15-5.319l.106.225a62.546,62.546,0,0,0,31.8,9.88c15.072.374,31.035-3.945,41.43-3.773a38.876,38.876,0,0,1-.234,10.414c-1.956,9.8-15.922,8.161-31.524,4.347" fill="#131f2d"/>
    </g>
    <g id="g698" transform="translate(7315 -7756.671)">
      <path id="path700" d="M3580.939-1058.624l65.66,176.666a59.939,59.939,0,0,0,19.761-1.8c8.886-2.573,19.083-9.306,19.083-9.306s-16.279-169.639-46.125-204.92c-29.868-35.292-58.379,39.36-58.379,39.36" fill="#131f2d"/>
    </g>
    <g id="g702" transform="translate(7315 -7756.671)">
      <path id="path704" d="M3840.621-1130.106s-188.645-63.785-230.717-50.212S3441.52-915.427,3441.52-915.427s2.86,3.788,10.631,6.708c7.223,2.72,24.766,2.531,24.766,2.531s113.988-97.7,127.551-126.211c13.587-28.495,19-55.64,32.585-52.92,13.563,2.706,175.058,66.493,211.719,28.492,36.638-38,27.055-87.36,27.055-87.36l-35.207,14.08" fill="#364154"/>
    </g>
    <g id="g706" transform="translate(7315 -7756.671)">
      <path id="path708" d="M3777.881-1412.074c-13.445,7.049-34.639,1.632-34.475,1.5,2.218-1.685.607-11.878-1.8-22.449-.14-.667-.3-1.331-.467-2-2.8-11.967-6.4-23.771-6.4-23.771l41.454-18.157,2.45-1.083c.233.964.444,1.919.654,2.843,7.189,30.551,15.965,35.938,19.91,40.156,5.391,5.784-8.683,16.322-21.334,22.956" fill="#ff7955"/>
    </g>
    <g id="g710" transform="translate(7315 -7756.671)">
      <path id="path712" d="M3779.287-1475.181c-4.568,14.714-14.19,32.5-38.442,38.883-2.829-11.964-6.1-22.486-6.1-22.486l41.434-18.157,2.457-1.083c.232.965.441,1.92.649,2.843" fill="#ef6343"/>
    </g>
    <g id="g714" transform="translate(7315 -7756.671)">
      <path id="path716" d="M3781.826-1484.454s9.445-21.958,9.747-39.5c.233-12.52-13.144-56.668-57.482-42.94a62.381,62.381,0,0,0-24.007,13.727c-8.793,8.221-20.727,24.844,1.442,61.7l6.258,12.648,64.042-5.637" fill="#131f2d"/>
    </g>
    <g id="g718" transform="translate(7315 -7756.671)">
      <path id="path720" d="M3719.868-1334.221c-11.343,35.033-30.6,82.166-41.284,87.207-5.683,2.666-11.319,5.292-16.294,7.054,1.347-27.933,54.7-103.93,54.7-103.93l2.876,9.669" fill="#016eb9"/>
    </g>
    <g id="g722" transform="translate(7315 -7756.671)">
      <path id="path724" d="M3730.321-1450.313s57.137-8.139,51.514-43.646-2.021-60.471-38.734-56.777-41.662,18.363-42.661,30.669,14.848,70.956,29.881,69.754" fill="#ff7955"/>
    </g>
    <g id="g726" transform="translate(7315 -7756.671)">
      <path id="path728" d="M3716.987-1547.472s22.231,39.166,47.166,41.51,34.3-5.728,34.3-5.728a216.146,216.146,0,0,0-9.275-45.521s-63.572-11.959-72.194,9.739" fill="#131f2d"/>
    </g>
    <g id="g730" transform="translate(7315 -7756.671)">
      <path id="path732" d="M3721.411-1544.708s-10.182,11.153-11.575,20.648.274,28.305-5.228,28.538c0,0-16.279-26.438-5.616-44.557,11.3-19.214,22.42-4.63,22.42-4.63" fill="#131f2d"/>
    </g>
    <g id="g734" transform="translate(7315 -7756.671)">
      <path id="path736" d="M3886.1-1138.612c.024.827.024,1.626,0,2.413a23.15,23.15,0,0,1-1.24,7.093c-2.741,7.615-10.49,10.254-21.052,9.72-1.407-.064-2.885-.186-4.387-.36-24.414-2.851-60.653-19.226-86.759-30.56-39.815-17.251-57.911-1.039-70.57-12.014a9.474,9.474,0,0,1-2.957-4.558,10.851,10.851,0,0,1-.31-1.268c-2.6-14.066,14.353-45.959-5.793-142.971-7.963-38.468,48.112-123.9,48.112-123.9s5.627,24.194,54.6-3.464c.31-.172,13.375,28.791,31.709,63.549,20.217,38.344,39.576,84.656,33.878,108.521-6.294,26.428,5.7,60,15.092,88.415,5.054,15.239,9.346,29,9.679,39.386" fill="#00a3fe"/>
    </g>
    <g id="g738" transform="translate(7315 -7756.671)">
      <path id="path740" d="M3886.1-1138.612c.024.827.024,1.626,0,2.413a23.15,23.15,0,0,1-1.24,7.093c-2.741,7.615-10.49,10.254-21.052,9.72-1.407-.064-2.885-.186-4.387-.36-24.414-2.851-60.653-19.226-86.759-30.56-39.815-17.251-57.267-1.4-70.9-11.146-3.767-2.68-2.908-9.613-3.433-11.4,21.767-12.026,75.744-2.265,50.734-55.4-12.755-27.105,51.378-104.053,68.853-74.6,26.393,38.747,46.824,12.774,39.386,36.88-8.082,26.28,6.962,59.56,19.121,87.974,5.054,15.239,9.346,29,9.679,39.386" fill="#016eb9"/>
    </g>
    <g id="g742" transform="translate(7315 -7756.671)">
      <path id="path744" d="M3645.618-1243.373l37.915,73.693,75.715-3.573-35.909-78.707-77.722,8.586" fill="#131f2d"/>
    </g>
    <g id="g746" transform="translate(7315 -7756.671)">
      <path id="path748" d="M3630.463-1224.86s-8.533,24.173-5.944,35.052c1.936,8.148,16.03,8.8,32.938,10.881,6.822,1.268,12.338,1.826,12.338,1.826l-39.332-47.759" fill="#016eb9"/>
    </g>
    <g id="g750" transform="translate(7315 -7756.671)">
      <path id="path752" d="M3606.266-1270.553l39.344,27.186,37.92,73.693-43.66-23.613-33.6-77.266" fill="#131f2d"/>
    </g>
    <g id="g754" transform="translate(7315 -7756.671)">
      <path id="path756" d="M3612.668-1266.144l4.79-4.414,30.842,21.373-2.686,5.813-32.947-22.772" fill="#ccbcb2"/>
    </g>
    <g id="g758" transform="translate(7315 -7756.671)">
      <path id="path760" d="M3645.625-1243.37l2.668-5.815,68.684-7.771v5.705l-71.352,7.881" fill="#efe5df"/>
    </g>
    <g id="g762" transform="translate(7315 -7756.671)">
      <path id="path764" d="M3716.986-1256.958l3.9,5.278-3.9.427v-5.7" fill="#ccbcb2"/>
    </g>
    <g id="g766" transform="translate(7315 -7756.671)">
      <path id="path768" d="M3759.67-1196.74s-8.982-12.6-20.688-13.72-19.4,4.84-20,8.439,2.355,15.094,10.552,18.479,34.057,4.493,34.057,4.493l-3.926-17.691" fill="#ff7955"/>
    </g>
    <g id="g770" transform="translate(7315 -7756.671)">
      <path id="path772" d="M3624.463-1197.557s6.532-12.239,16.3-13.159,16.747,5.067,17.555,8.614-.382,15.667-7.341,18.013c-32.124,10.84-26.511-13.467-26.511-13.467" fill="#ff7955"/>
    </g>
    <g id="g774" transform="translate(7315 -7756.671)">
      <path id="path776" d="M3795.727-1438.478s39.67,4.512,55.951,27.221c22.909,31.972,62.507,214.02,36.476,232.207-30.713,21.427-132.506,2.08-132.506,2.08s-.792-11.932,4.034-19.773,85.127-14.747,88.753-18.361-45-123.167-45-134.024-7.708-89.351-7.708-89.351" fill="#00a3fe"/>
    </g>
    <g id="g778" transform="translate(7315 -7756.671)">
      <path id="path780" d="M2548.836-1464.445s-2.189-41.632-40.891-39.441c-38.717,2.192-64.284,28.484-90.57,11.687-26.3-16.8-104.346,46.013-104.346,46.013l235.806-18.259" fill="#131f2d"/>
    </g>
    <g id="g782" transform="translate(7315 -7756.671)">
      <path id="path784" d="M2236.244-1452.032s-5.858-55.678,23.373-51.945,41.832,37.337,53.429,14.7c11.568-22.65,63.788-13.59,77.938,11.185s-154.74,26.064-154.74,26.064" fill="#131f2d"/>
    </g>
    <g id="g786" transform="translate(7315 -7756.671)">
      <path id="path788" d="M2285.653-1468.827a32.315,32.315,0,0,1,10.335-38.369c10.967-8.14,27.786-14.964,52.476-12.271,53.57,5.842,130.012,27.268,146.077,23.372s-7.3,27.268-7.3,27.268H2285.653" fill="#364154"/>
    </g>
    <g id="g790" transform="translate(7315 -7756.671)">
      <path id="path792" d="M2538.151-1309.66H2243.787l-14.6-149.97h323.557l-14.6,149.97" fill="#00a3fe"/>
    </g>
    <g id="g794" transform="translate(7315 -7756.671)">
      <path id="path796" d="M2564.31-1440.162H2215.815v-36.032H2564.31v36.032" fill="#016eb9"/>
    </g>
    <g id="g798" transform="translate(7315 -7756.671)">
      <path id="path800" d="M2279.69-1476.191s-20.811,7.175-23.916,21.608c0,0-25.412,4.294-19.021-23.51,6.419-27.8,42.936,1.9,42.936,1.9" fill="#131f2d"/>
    </g>
    <g id="g802" transform="translate(7315 -7756.671)">
      <path id="path804" d="M4320.318-760.772H1910.648a3.962,3.962,0,0,1-3.945-3.948v-5.412a3.955,3.955,0,0,1,3.945-3.948H4320.318a3.96,3.96,0,0,1,3.953,3.948v5.412a3.967,3.967,0,0,1-3.953,3.948" fill="#131f2d"/>
    </g>
    <g id="g806" transform="translate(7315 -7756.671)">
      <path id="path808" d="M2831.042-1309.661h-27.651v-128.307h27.651v128.307" fill="#131f2d"/>
    </g>
    <g id="g810" transform="translate(7315 -7756.671)">
      <path id="path812" d="M2823.967-1309.661h74.927v-128.305h-74.927v128.305" fill="#364154"/>
    </g>
    <g id="g814" transform="translate(7315 -7756.671)">
      <path id="path816" d="M2894.156-1385.857h-62.784v-13.16h62.784v13.16" fill="#d5d6da"/>
    </g>
    <g id="g818" transform="translate(7315 -7756.671)">
      <path id="path820" d="M2953.691-1376.848l-1.057,1.018a4.4,4.4,0,0,1-6.686-.745l-14.648-21.959a4.385,4.385,0,0,1,.856-5.8,4.37,4.37,0,0,1,6.3.738l15.722,20.944a4.377,4.377,0,0,1-.492,5.806Zm12.789-6.506-24.1-37.783a21.4,21.4,0,0,0-18.036-9.893h-10.148a21.384,21.384,0,0,0-16.305,7.564l-13.409,15.81v88.648a9.351,9.351,0,0,0,9.346,9.346h66.443a9.351,9.351,0,0,0,9.346-9.346v-53.6a19.872,19.872,0,0,0-3.134-10.742" fill="#00a3fe"/>
    </g>
    <g id="g822" transform="translate(7315 -7756.671)">
      <path id="path824" d="M2914.172-1409.735l-10.727,10.716-22.706-22.725,10.709-10.714,22.723,22.723" fill="#00a3fe"/>
    </g>
    <g id="g826" transform="translate(7315 -7756.671)">
      <path id="path828" d="M2897.85-1428.969l-13.654,13.647-4.818-4.818a4.951,4.951,0,0,1,0-6.981l6.667-6.665a4.944,4.944,0,0,1,6.987,0l4.818,4.818" fill="#d5d6da"/>
    </g>
    <g id="g830" transform="translate(7315 -7756.671)">
      <path id="path832" d="M2937.774-1333.771H2884.5v-46.379h53.276v46.379" fill="#016eb9"/>
    </g>
  </g>
</svg>
