<svg xmlns="http://www.w3.org/2000/svg" width="3218.378" height="1832.094" viewBox="0 0 3218.378 1832.094">
  <g id="bg1" transform="translate(-4961.472 1876.201)">
    <path id="path14" d="M3405.632-4568.522v-3.053a17.2,17.2,0,0,1,17.2-17.187h753.052v-21.827a17.185,17.185,0,0,0-17.187-17.187H3398.658a17.193,17.193,0,0,0-17.187,17.187v148.96a17.2,17.2,0,0,0,17.187,17.2H4158.7a17.187,17.187,0,0,0,17.187-17.2v-89.707H3422.832a17.2,17.2,0,0,1-17.2-17.187" transform="translate(1580 4400.316)" fill="#3b9d9a"/>
    <path id="path16" d="M3422.832-4588.762a17.2,17.2,0,0,0-17.2,17.187v3.053a17.2,17.2,0,0,0,17.2,17.187h753.052v-37.427H3422.832" transform="translate(1580 4400.316)" fill="#48b2a8"/>
    <path id="path18" d="M4134.55-4475.976a17.193,17.193,0,0,0,17.187-17.186v-3.054a17.193,17.193,0,0,0-17.187-17.186H3381.472v37.426H4134.55" transform="translate(1580 4400.316)" fill="#48b2a8"/>
    <path id="path20" d="M3405.632-4769.562v-3.053a17.2,17.2,0,0,1,17.2-17.187h753.052v-21.827a17.185,17.185,0,0,0-17.187-17.187H3398.658a17.193,17.193,0,0,0-17.187,17.187v148.973a17.193,17.193,0,0,0,17.187,17.187H4158.7a17.185,17.185,0,0,0,17.187-17.187v-89.719H3422.832a17.2,17.2,0,0,1-17.2-17.187" transform="translate(1580 4400.316)" fill="#6d379d"/>
    <path id="path22" d="M3422.832-4789.8a17.2,17.2,0,0,0-17.2,17.187v3.053a17.2,17.2,0,0,0,17.2,17.186h753.052V-4789.8H3422.832" transform="translate(1580 4400.316)" fill="#834baa"/>
    <path id="path24" d="M4134.55-4677.015a17.193,17.193,0,0,0,17.187-17.187v-3.053a17.2,17.2,0,0,0-17.187-17.186H3381.472v37.426H4134.55" transform="translate(1580 4400.316)" fill="#834baa"/>
    <path id="path30" d="M3655.764-4568.522v-3.053a17.2,17.2,0,0,1,17.2-17.187h753.065v-21.827a17.2,17.2,0,0,0-17.2-17.187H3648.791a17.193,17.193,0,0,0-17.187,17.187v148.96a17.2,17.2,0,0,0,17.187,17.2h760.038a17.2,17.2,0,0,0,17.2-17.2v-89.707H3672.965a17.2,17.2,0,0,1-17.2-17.187" transform="translate(1580 4400.316)" fill="#fbcd35"/>
    <path id="path32" d="M3672.965-4588.762a17.2,17.2,0,0,0-17.2,17.187v3.053a17.2,17.2,0,0,0,17.2,17.187h753.065v-37.427H3672.965" transform="translate(1580 4400.316)" fill="#d7ab2e"/>
    <path id="path34" d="M4384.683-4475.976a17.184,17.184,0,0,0,17.187-17.186v-3.054a17.184,17.184,0,0,0-17.187-17.186H3631.6v37.426h753.078" transform="translate(1580 4400.316)" fill="#d7ab2e"/>
    <path id="path36" d="M3655.764-4769.562v-3.053a17.2,17.2,0,0,1,17.2-17.187h753.065v-21.827a17.2,17.2,0,0,0-17.2-17.187H3648.791a17.193,17.193,0,0,0-17.187,17.187v148.973a17.193,17.193,0,0,0,17.187,17.187h760.038a17.2,17.2,0,0,0,17.2-17.187v-89.719H3672.965a17.2,17.2,0,0,1-17.2-17.187" transform="translate(1580 4400.316)" fill="#ef3b4d"/>
    <path id="path38" d="M3672.965-4789.8a17.2,17.2,0,0,0-17.2,17.187v3.053a17.2,17.2,0,0,0,17.2,17.186h753.065V-4789.8H3672.965" transform="translate(1580 4400.316)" fill="#da313f"/>
    <path id="path40" d="M4384.683-4677.015a17.185,17.185,0,0,0,17.187-17.187v-3.053a17.193,17.193,0,0,0-17.187-17.186H3631.6v37.426h753.078" transform="translate(1580 4400.316)" fill="#da313f"/>
    <path id="path42" d="M4093.283-5239.934a4.51,4.51,0,0,1,1.213.174v-47.214c0-7.187-6.307-13.026-14.093-13.026h-55.787v60.066h68.667" transform="translate(1580 4400.316)" fill="#c11e2a"/>
    <path id="path44" d="M4024.617-5239.934V-5300h-49.453c-7.787,0-14.093,5.84-14.093,13.026v47.28c.187-.147.293-.24.293-.24h63.253" transform="translate(1580 4400.316)" fill="#d51e27"/>
    <path id="path46" d="M4156.177-4978.735c-17.467-26.213-34.067-55.04-34.067-55.04s-41.067-95.213-14.854-105.707,65.52,21.84,77.747,72.506S4173.643-4952.535,4156.177-4978.735Zm53.293,23.586c1.747-13.106,34.066-117.066-13.987-182.586s-93.466-70.76-93.466-70.76,1.6-28.907-7.52-31.266a4.51,4.51,0,0,0-1.213-.174h-68.667v408.826h157.759s35.827-16.586,20.093-71.626c0,0,6.48-9.066,8.747-16.6,5.24-17.466-3.493-22.707-1.747-35.813" transform="translate(1580 4400.316)" fill="#d9e2eb"/>
    <path id="path48" d="M3961.364-5239.934s-.107.093-.293.24c-1.56,1.293-9.307,8.507-9.307,24.213,0,0-28.826,39.32-27.96,60.28s10.48,64.64,6.12,89.974-27.96,121.426-18.347,168.6,30.573,69.013,79.493,65.52h33.546v-408.825h-63.253" transform="translate(1580 4400.316)" fill="#fff"/>
    <path id="path50" d="M3969.11-5089.6a18.676,18.676,0,0,0-18.68,18.68v171.546a18.676,18.676,0,0,0,18.68,18.68h55.92V-5089.6h-55.92" transform="translate(1580 4400.316)" fill="#f2564a"/>
    <path id="path52" d="M4083.257-5089.6H4025.03v208.906h58.227a18.675,18.675,0,0,0,18.68-18.68v-171.546a18.676,18.676,0,0,0-18.68-18.68" transform="translate(1580 4400.316)" fill="#e54134"/>
    <path id="path54" d="M5785.959-6276.518H4446.442v343.772H5785.959v-343.772" transform="translate(1580 4400.316)" fill="#3e5a79"/>
    <path id="path56" d="M4446.442-5932.745v14.093H5785.959v-14.093H4446.442" transform="translate(1580 4400.316)" fill="#7c9fa0"/>
    <path id="path58" d="M5116.2-5739.652c-167.333,0-302.985,135.652-302.985,302.985s135.653,302.986,302.985,302.986,302.986-135.653,302.986-302.986-135.653-302.985-302.986-302.985" transform="translate(1580 4400.316)" fill="#3e5a79"/>
    <path id="path60" d="M5116.2-5009.081c-235.772,0-427.585-191.813-427.585-427.585s191.813-427.586,427.585-427.586,427.586,191.813,427.586,427.586S5351.974-5009.081,5116.2-5009.081Zm316.586-744.158a446.12,446.12,0,0,0-142.319-95.946,444.9,444.9,0,0,0-174.267-35.187,444.907,444.907,0,0,0-174.266,35.187,445.917,445.917,0,0,0-142.306,95.946,445.923,445.923,0,0,0-95.947,142.307,444.9,444.9,0,0,0-35.187,174.267,444.907,444.907,0,0,0,35.187,174.266,445.923,445.923,0,0,0,95.947,142.306,445.921,445.921,0,0,0,142.306,95.947A444.9,444.9,0,0,0,5116.2-4988.96a444.911,444.911,0,0,0,174.267-35.187,446.114,446.114,0,0,0,142.319-95.947A446.1,446.1,0,0,0,5528.72-5262.4a444.906,444.906,0,0,0,35.186-174.266,444.908,444.908,0,0,0-35.186-174.267,446.1,446.1,0,0,0-95.934-142.307" transform="translate(1580 4400.316)" fill="#3e5a79"/>
    <path id="path62" d="M4446.442-4444.429H5785.959v-214.906H4446.442v214.906" transform="translate(1580 4400.316)" fill="#fffeff"/>
    <path id="path64" d="M4446.442-4663.869v4.533H5785.959v-4.533H4446.442" transform="translate(1580 4400.316)" fill="#8ba4ab"/>
    <path id="path66" d="M5785.959-4663.869v-4.534H4446.442v4.534H5785.959" transform="translate(1580 4400.316)" fill="#8ba4ab"/>
    <path id="path68" d="M5734.267-4481.722a12.067,12.067,0,0,1-12.081,12.066H5509.76a12.066,12.066,0,0,1-12.08-12.066v-138.293a12.078,12.078,0,0,1,12.08-12.08h212.426a12.078,12.078,0,0,1,12.081,12.08v138.293" transform="translate(1580 4400.316)" fill="#3e5a79"/>
    <path id="path70" d="M4895.481-6058.279a12.087,12.087,0,0,1-12.08,12.081H4532.9a12.087,12.087,0,0,1-12.08-12.081v-128.6a12.087,12.087,0,0,1,12.08-12.08H4883.4a12.086,12.086,0,0,1,12.08,12.08v128.6" transform="translate(1580 4400.316)" fill="#2d364d"/>
    <path id="path72" d="M5723.133-6113.571a87.91,87.91,0,0,1-87.907,87.907,87.9,87.9,0,0,1-87.893-87.907,87.9,87.9,0,0,1,87.893-87.907,87.91,87.91,0,0,1,87.907,87.907" transform="translate(1580 4400.316)" fill="#446c7b"/>
    <path id="path74" d="M5635.226-6194.932a81.455,81.455,0,0,0-81.359,81.36,81.455,81.455,0,0,0,81.359,81.36,81.446,81.446,0,0,0,81.36-81.36A81.446,81.446,0,0,0,5635.226-6194.932Zm0,175.8a94.557,94.557,0,0,1-94.439-94.44,94.549,94.549,0,0,1,94.439-94.44,94.551,94.551,0,0,1,94.453,94.44,94.56,94.56,0,0,1-94.453,94.44" transform="translate(1580 4400.316)" fill="#7c9fa0"/>
    <path id="path76" d="M5731.373-6120.332h10.373a106.31,106.31,0,0,0-26.426-63.773l-7.32,7.319a95.527,95.527,0,0,1,23.374,56.453" transform="translate(1580 4400.316)" fill="#d42328"/>
    <path id="path78" d="M5562.467-6176.785l-7.32-7.32a106.312,106.312,0,0,0-26.427,63.773h10.36a95.536,95.536,0,0,1,23.387-56.453" transform="translate(1580 4400.316)" fill="#5391d4"/>
    <path id="path80" d="M5698.453-6186.332l7.32-7.333a106.292,106.292,0,0,0-63.787-26.413v10.36a95.528,95.528,0,0,1,56.467,23.386" transform="translate(1580 4400.316)" fill="#d42328"/>
    <path id="path82" d="M5628.479-6209.718v-10.359a106.283,106.283,0,0,0-63.786,26.413l7.319,7.333a95.522,95.522,0,0,1,56.467-23.387" transform="translate(1580 4400.316)" fill="#5391d4"/>
    <path id="path84" d="M5641.986-6017.425v10.36a106.3,106.3,0,0,0,63.787-26.427l-7.32-7.32a95.52,95.52,0,0,1-56.467,23.387" transform="translate(1580 4400.316)" fill="#d42328"/>
    <path id="path86" d="M5539.08-6106.825H5528.72a106.345,106.345,0,0,0,26.426,63.786l7.319-7.32a95.542,95.542,0,0,1-23.386-56.466" transform="translate(1580 4400.316)" fill="#5391d4"/>
    <path id="path88" d="M5731.373-6106.825a95.461,95.461,0,0,1-23.387,56.466l7.333,7.32a106.348,106.348,0,0,0,26.426-63.786h-10.373" transform="translate(1580 4400.316)" fill="#d42328"/>
    <path id="path90" d="M5572.013-6040.812l-7.319,7.32a106.3,106.3,0,0,0,63.786,26.427v-10.36a95.528,95.528,0,0,1-56.467-23.387" transform="translate(1580 4400.316)" fill="#5391d4"/>
    <path id="path92" d="M5483.467-6113.571a74.942,74.942,0,0,1-74.947,74.933,74.927,74.927,0,0,1-74.919-74.933,74.928,74.928,0,0,1,74.919-74.934,74.943,74.943,0,0,1,74.947,74.934" transform="translate(1580 4400.316)" fill="#446c7b"/>
    <path id="path94" d="M5408.52-6181.971a68.469,68.469,0,0,0-68.386,68.4,68.466,68.466,0,0,0,68.386,68.386,68.469,68.469,0,0,0,68.4-68.386A68.472,68.472,0,0,0,5408.52-6181.971Zm0,149.866a81.56,81.56,0,0,1-81.466-81.466,81.563,81.563,0,0,1,81.466-81.48,81.566,81.566,0,0,1,81.48,81.48,81.563,81.563,0,0,1-81.48,81.466" transform="translate(1580 4400.316)" fill="#7c9fa0"/>
    <path id="path96" d="M5490.934-6119.358h8.88a91.171,91.171,0,0,0-22.654-54.667l-6.28,6.28a81.827,81.827,0,0,1,20.053,48.386" transform="translate(1580 4400.316)" fill="#d42328"/>
    <path id="path98" d="M5346.173-6167.745l-6.28-6.28a91,91,0,0,0-22.64,54.667h8.88a81.727,81.727,0,0,1,20.04-48.386" transform="translate(1580 4400.316)" fill="#5391d4"/>
    <path id="path100" d="M5462.707-6175.932l6.266-6.28a91.072,91.072,0,0,0-54.666-22.64v8.88a81.889,81.889,0,0,1,48.4,20.04" transform="translate(1580 4400.316)" fill="#d42328"/>
    <path id="path102" d="M5402.747-6195.971v-8.88a91.072,91.072,0,0,0-54.667,22.64l6.267,6.28a81.971,81.971,0,0,1,48.4-20.04" transform="translate(1580 4400.316)" fill="#5391d4"/>
    <path id="path104" d="M5414.307-6031.172v8.88a91.089,91.089,0,0,0,54.666-22.653l-6.266-6.266a81.974,81.974,0,0,1-48.4,20.04" transform="translate(1580 4400.316)" fill="#d42328"/>
    <path id="path106" d="M5326.134-6107.785h-8.88a91.061,91.061,0,0,0,22.64,54.667l6.28-6.28a81.768,81.768,0,0,1-20.04-48.387" transform="translate(1580 4400.316)" fill="#5391d4"/>
    <path id="path108" d="M5490.934-6107.785a81.866,81.866,0,0,1-20.053,48.387l6.28,6.28a91.237,91.237,0,0,0,22.654-54.667h-8.88" transform="translate(1580 4400.316)" fill="#d42328"/>
    <path id="path110" d="M5354.36-6051.211l-6.28,6.266a91.087,91.087,0,0,0,54.667,22.654v-8.88a81.894,81.894,0,0,1-48.386-20.041" transform="translate(1580 4400.316)" fill="#5391d4"/>
    <path id="path112" d="M5025.374-6132.345c0,16.573-8.28,30-18.493,30s-18.493-13.427-18.493-30,8.28-29.986,18.493-29.986,18.493,13.426,18.493,29.986" transform="translate(1580 4400.316)" fill="#2d364d"/>
    <path id="path114" d="M5025.374-6139.385c0,16.56-8.28,29.987-18.493,29.987s-18.493-13.427-18.493-29.987,8.28-30,18.493-30,18.493,13.427,18.493,30" transform="translate(1580 4400.316)" fill="#7c9fa0"/>
    <path id="path116" d="M5096.974-6132.345c0,16.573-8.28,30-18.494,30s-18.493-13.427-18.493-30,8.28-29.986,18.493-29.986,18.494,13.426,18.494,29.986" transform="translate(1580 4400.316)" fill="#2d364d"/>
    <path id="path118" d="M5096.974-6139.385c0,16.56-8.28,29.987-18.494,29.987s-18.493-13.427-18.493-29.987,8.28-30,18.493-30,18.494,13.427,18.494,30" transform="translate(1580 4400.316)" fill="#7c9fa0"/>
    <path id="path120" d="M5168.574-6132.345c0,16.573-8.28,30-18.493,30s-18.493-13.427-18.493-30,8.28-29.986,18.493-29.986,18.493,13.426,18.493,29.986" transform="translate(1580 4400.316)" fill="#2d364d"/>
    <path id="path122" d="M5168.574-6139.385c0,16.56-8.28,29.987-18.493,29.987s-18.493-13.427-18.493-29.987,8.28-30,18.493-30,18.493,13.427,18.493,30" transform="translate(1580 4400.316)" fill="#7c9fa0"/>
    <path id="path124" d="M5240.173-6132.345c0,16.573-8.28,30-18.493,30s-18.493-13.427-18.493-30,8.28-29.986,18.493-29.986,18.493,13.426,18.493,29.986" transform="translate(1580 4400.316)" fill="#2d364d"/>
    <path id="path126" d="M5240.173-6139.385c0,16.56-8.28,29.987-18.493,29.987s-18.493-13.427-18.493-29.987,8.28-30,18.493-30,18.493,13.427,18.493,30" transform="translate(1580 4400.316)" fill="#7c9fa0"/>
    <path id="path128" d="M4956.4-6056.211h-28.573v-9.734H4956.4v9.734" transform="translate(1580 4400.316)" fill="#fffeff"/>
    <path id="path130" d="M4990.841-6056.211h-28.586v-9.734h28.586v9.734" transform="translate(1580 4400.316)" fill="#fffeff"/>
    <path id="path132" d="M5025.268-6056.211h-28.574v-9.734h28.574v9.734" transform="translate(1580 4400.316)" fill="#fffeff"/>
    <path id="path134" d="M5059.707-6056.211h-28.586v-9.734h28.586v9.734" transform="translate(1580 4400.316)" fill="#fffeff"/>
    <path id="path136" d="M5094.134-6056.211h-28.573v-9.734h28.573v9.734" transform="translate(1580 4400.316)" fill="#fffeff"/>
    <path id="path138" d="M5128.574-6056.211h-28.586v-9.734h28.586v9.734" transform="translate(1580 4400.316)" fill="#fffeff"/>
    <path id="path140" d="M5163-6056.211h-28.586v-9.734H5163v9.734" transform="translate(1580 4400.316)" fill="#fffeff"/>
    <path id="path142" d="M5197.44-6056.211h-28.586v-9.734h28.586v9.734" transform="translate(1580 4400.316)" fill="#fffeff"/>
    <path id="path144" d="M5231.867-6056.211h-28.586v-9.734h28.586v9.734" transform="translate(1580 4400.316)" fill="#fffeff"/>
    <path id="path146" d="M5266.307-6056.211H5237.72v-9.734h28.587v9.734" transform="translate(1580 4400.316)" fill="#fffeff"/>
    <path id="path148" d="M5300.734-6056.211h-28.573v-9.734h28.573v9.734" transform="translate(1580 4400.316)" fill="#fffeff"/>
    <path id="path150" d="M4799.628-5120.094a445.917,445.917,0,0,1-95.947-142.307,444.9,444.9,0,0,1-35.187-174.266,444.912,444.912,0,0,1,35.187-174.267,445.923,445.923,0,0,1,95.947-142.306,445.919,445.919,0,0,1,142.306-95.946,444.89,444.89,0,0,1,174.266-35.187,444.911,444.911,0,0,1,174.267,35.187,446.112,446.112,0,0,1,142.319,95.946,447.084,447.084,0,0,1,70.066,90.72L5773.8-5918.653H4446.443V-4668.4h4.853l417.719-394.905a448.327,448.327,0,0,1-69.386-56.787" transform="translate(1580 4400.316)" fill="#fffeff"/>
    <path id="path152" d="M5773.8-5918.652l-270.946,256.133a447.013,447.013,0,0,1,25.867,51.585,444.912,444.912,0,0,1,35.186,174.267A444.906,444.906,0,0,1,5528.72-5262.4a446.092,446.092,0,0,1-95.934,142.307,446.122,446.122,0,0,1-142.319,95.947,444.9,444.9,0,0,1-174.267,35.186,444.906,444.906,0,0,1-174.266-35.186,445.961,445.961,0,0,1-72.919-39.16L4451.3-4668.4H5785.959v-1250.25H5773.8" transform="translate(1580 4400.316)" fill="#ebe9e8"/>
    <path id="path154" d="M5461.026-5369.373s-72.146,31.453-104.986-28.88c-13.107,24.08-32.467,33.533-51.014,36.213-18.547-2.68-37.919-12.133-51.026-36.213-14.867,27.32-37.786,35.813-58.426,36.947a2.5,2.5,0,0,0-.32.014c-.52.026-1.04.04-1.56.066-.36.014-.733.014-1.106.026-.32,0-.64.014-.947.014-.359.014-.72,0-1.08,0s-.72.014-1.08,0c-.32,0-.64-.014-.947-.014-.374-.013-.747-.013-1.12-.026-.507-.026-1.027-.04-1.547-.066a2.721,2.721,0,0,0-.333-.014c-20.64-1.133-43.56-9.626-58.427-36.947-14.893,27.374-37.88,35.853-58.56,36.947-20.667-1.093-43.667-9.573-58.56-36.947-14.867,27.32-37.787,35.813-58.426,36.947a2.616,2.616,0,0,0-.333.014c-.52.026-1.027.04-1.547.066-.374.014-.747.014-1.12.026-.307,0-.627.014-.947.014-.36.014-.72,0-1.08,0s-.72.014-1.08,0c-.307,0-.627-.014-.947-.014-.373-.013-.747-.013-1.106-.026-.52-.026-1.04-.04-1.56-.066a2.507,2.507,0,0,0-.32-.014c-20.64-1.133-43.56-9.626-58.426-36.947-32.827,60.333-104.973,28.88-104.973,28.88-32.213,61.466,104.973,173.68,104.973,173.68s7.573,53.747,37.56,18.64c29.986,35.106,66.853,29.573,66.853,29.573s25.8,44.2,54.427,11.826c28.613,32.374,80.44,39.053,80.44,39.053s30.947,10.853,60.933-24.253c30,35.106,71.586-34.32,71.586-34.32s25.359,13.96,51.466-14.186c26.093,28.146,49.68-26.333,49.68-26.333s137.186-112.213,104.986-173.68" transform="translate(1580 4400.316)" fill="#87d7de"/>
    <path id="path156" d="M5116.2-5133.681c-167.333,0-302.985-135.653-302.985-302.985s135.653-302.986,302.985-302.986S5419.187-5604,5419.187-5436.666,5283.534-5133.681,5116.2-5133.681Zm0-730.572c-235.772,0-427.585,191.813-427.585,427.585s191.813,427.585,427.585,427.585,427.586-191.813,427.586-427.585-191.813-427.585-427.586-427.585" transform="translate(1580 4400.316)" fill="#7c9fa0"/>
    <path id="path158" d="M5408.08-5515.106a71.195,71.195,0,0,0-71.2,71.2v3.84a71.2,71.2,0,0,0,71.2,71.213h139.573v-146.252H5408.08" transform="translate(1580 4400.316)" fill="#7c9fa0"/>
    <path id="path160" d="M5554.693-5522.16H5408.08a78.344,78.344,0,0,0-78.253,78.253v3.84a78.336,78.336,0,0,0,78.253,78.253h146.613V-5522.16Zm-7.041,7.053v146.253H5408.08a71.2,71.2,0,0,1-71.2-71.213v-3.84a71.195,71.195,0,0,1,71.2-71.2h139.573" transform="translate(1580 4400.316)" fill="#3e5a79"/>
    <path id="path162" d="M4998.841-5469.707a15.35,15.35,0,0,1-15.347,15.347,15.359,15.359,0,0,1-15.347-15.347,15.35,15.35,0,0,1,15.347-15.347,15.342,15.342,0,0,1,15.347,15.347" transform="translate(1580 4400.316)" fill="#87d7de"/>
    <path id="path164" d="M5214.507-5447.28a16.53,16.53,0,0,1-16.533,16.533,16.53,16.53,0,0,1-16.533-16.533,16.528,16.528,0,0,1,16.533-16.52,16.528,16.528,0,0,1,16.533,16.52" transform="translate(1580 4400.316)" fill="#87d7de"/>
    <path id="path166" d="M5168.067-5536.213a9.443,9.443,0,0,1-9.453,9.44,9.44,9.44,0,0,1-9.44-9.44,9.443,9.443,0,0,1,9.44-9.453,9.445,9.445,0,0,1,9.453,9.453" transform="translate(1580 4400.316)" fill="#87d7de"/>
    <path id="path168" d="M5028.268-5555.853a12.14,12.14,0,0,1-12.147,12.146,12.149,12.149,0,0,1-12.147-12.146A12.141,12.141,0,0,1,5016.121-5568a12.132,12.132,0,0,1,12.147,12.147" transform="translate(1580 4400.316)" fill="#87d7de"/>
    <path id="path170" d="M5279.04-5546.053a19.273,19.273,0,0,1-19.28,19.28,19.274,19.274,0,0,1-19.28-19.28,19.273,19.273,0,0,1,19.28-19.28,19.273,19.273,0,0,1,19.28,19.28" transform="translate(1580 4400.316)" fill="#87d7de"/>
    <path id="path172" d="M5094.868-5428.387a11.8,11.8,0,0,1-11.8,11.8,11.808,11.808,0,0,1-11.814-11.8,11.82,11.82,0,0,1,11.814-11.813,11.808,11.808,0,0,1,11.8,11.813" transform="translate(1580 4400.316)" fill="#87d7de"/>
    <path id="path174" d="M5116.907-5611.772a11.8,11.8,0,0,1-11.813,11.8,11.8,11.8,0,0,1-11.8-11.8,11.808,11.808,0,0,1,11.8-11.814,11.811,11.811,0,0,1,11.813,11.814" transform="translate(1580 4400.316)" fill="#87d7de"/>
    <path id="path176" d="M5792.319-4873.508s20.627-147,131.52-152.146,77.359,64.466,208.88,48.986,90.252,79.947,77.359,105.733-417.759-2.573-417.759-2.573" transform="translate(1580 4400.316)" fill="#e54134"/>
    <path id="path178" d="M6328.691-4891.562s-12.893-172.773-149.56-113.466-3.614,42.293-128.947,167.613c-43.826,43.84-36.093,92.84,56.747,110.893s159.88-54.16,170.186-59.319,51.573-105.72,51.573-105.72" transform="translate(1580 4400.316)" fill="#d7ab2e"/>
    <path id="path180" d="M6308.064-4790.988s-105.733-90.266-103.146-98-28.374-87.68,85.093-103.146,177.933,12.893,224.346,51.573,43.84,61.893,49,82.52-2.574,46.413-2.574,46.413-11.319,41.626-54.653,41.44-156.8,38.507-198.066-20.8" transform="translate(1580 4400.316)" fill="#6d379d"/>
    <path id="path182" d="M5864.519-4860.628s-206.292-20.626-149.56,92.84,214.427,210.84,167.614,244.973,128.946-77.36,157.306-97.986-33.52-97.986-95.413-113.466-85.093-123.773-79.947-126.359" transform="translate(1580 4400.316)" fill="#e54134"/>
    <path id="path184" d="M5869.679-4863.2c7.733-2.573,131.52-64.466,152.147-2.573s59.307,180.506,23.213,193.4-188.253,72.2-216.613,49-46.414-105.733-46.414-131.52,87.667-108.307,87.667-108.307" transform="translate(1580 4400.316)" fill="#d7ab2e"/>
    <path id="path186" d="M5955.826-4639.082c-149.707,23.947-265.6-193.4-219.186-33.52s108.306,232.08,188.252,195.973,95.414-172.773,30.934-162.453" transform="translate(1580 4400.316)" fill="#3b9d9a"/>
    <path id="path188" d="M5810.373-4551.175s-28.36,0-25.787,25.787,28.36,77.36,49,77.36,193.4-7.733,208.866-7.733,67.053-90.253,67.053-134.093-87.187-78.88-118.373-43.307-31.2,97.453-41.506,112.933-139.253-30.947-139.253-30.947" transform="translate(1580 4400.316)" fill="#6d379d"/>
    <path id="path190" d="M6217.812-4687.842s69.586-90.08,100.546-47.626,23.227,117.24,59.333,132.72,108.306-18.053,41.253,36.106-146.986,149.56-201.133,79.934-46.426-190.827,0-201.133" transform="translate(1580 4400.316)" fill="#d7ab2e"/>
    <path id="path192" d="M6207.492-4783.255s136.786-96.12,234.719-53.213,133.36,4.573,101.467,66.28-6.107,95.24-65.413,121.026-61.894,90.253-105.734,67.04-165.039-201.133-165.039-201.133" transform="translate(1580 4400.316)" fill="#e54134"/>
    <path id="path194" d="M6212.651-4512.5s103.413-31.907,128.933-25.787,79.946-36.106,85.106-69.626,30.947-38.68,51.574-41.252,18.133-4.107,27.12,16,8.973,51.04,6.4,58.773-23.214,64.466-23.214,64.466l-30.946,54.16-244.973,7.733V-4512.5" transform="translate(1580 4400.316)" fill="#3b9d9a"/>
    <path id="path196" d="M5677.4-4887.068s-8.853-76.707,32.4-84.44,51.573,0,136.68,12.893,105.733,69.626,113.453,79.947c7.747,10.307-281.066,0-281.066,0" transform="translate(1580 4400.316)" fill="#3b9d9a"/>
    <path id="path198" d="M6543.677-4770.188h-26.36v-66.28h26.36Zm-26.36,96.333v-61.613h18.08Zm-11.187-96.333h-26.36v-66.28h26.36Zm0,101.014h-26.36v-66.293h26.36Zm-20.2,102.293h-6.16v-66.28h25.613Zm-17.36-203.307h-26.36v-66.28h26.36Zm0,101.014h-26.36v-66.293h26.36Zm0,102.293h-26.36v-66.28h26.36Zm0,59.133-12.293,41.88h-14.066v-66.293h26.36Zm-37.547-262.439h-26.36v-66.28h26.36Zm0,101.014h-26.36v-66.293h26.36Zm0,102.293h-26.36v-66.28h26.36Zm0,101.013h-26.36v-66.293h26.36Zm-37.56-304.319H6367.1v-66.28h26.36Zm0,101.014H6367.1v-66.293h26.36Zm0,102.292H6367.1v-66.28h26.36Zm0,101.014H6367.1v-66.293h26.36Zm-37.547-304.319h-26.36v-66.28h26.36Zm0,101.013h-26.36v-66.293h26.36Zm0,102.293h-26.36v-66.28h26.36Zm0,101.013h-26.36v-66.293h26.36Zm-37.56-304.319h-26.347v-66.28h26.347Zm0,101.014h-26.347v-66.293h26.347Zm0,102.293h-26.347v-66.28h26.347Zm0,101.013h-26.347v-66.293h26.347Zm-37.546-304.319h-26.36v-66.28h26.36Zm0,101.013h-26.36v-66.293h26.36Zm0,102.293h-26.36v-66.28h26.36Zm0,101.013h-26.36v-66.293h26.36Zm-263.319-304.319h-26.36v-66.279h26.36Zm0,101.014h-26.36v-66.293h26.36Zm0,102.293h-26.36v-66.28h26.36Zm0,101.013h-26.36v-66.293h26.36Zm-37.56-304.319h-26.36v-66.28h26.36Zm0,101.013h-26.36v-66.293h26.36Zm0,102.293h-26.36v-66.28h26.36Zm0,101.013h-26.36v-66.293h26.36Zm-37.547-304.319h-26.36v-66.28h26.36Zm0,101.013h-26.36v-66.293h26.36Zm0,102.293h-26.36v-66.28h26.36Zm0,101.014h-26.36v-66.293h26.36Zm-37.56-304.319h-26.36v-66.28h26.36Zm0,101.013h-26.36v-66.293h26.36Zm0,102.293h-26.36v-66.28h26.36Zm0,101.013h-26.36v-66.293h26.36Zm-37.546-304.319h-26.36v-66.28h26.36Zm0,101.013h-26.36v-66.293h26.36Zm0,102.293h-26.36v-66.28h26.36Zm0,101.014h-26.36v-66.293h26.36Zm-37.56-304.319h-26.36v-66.28h26.36Zm0,101.013h-26.36v-66.293h26.36Zm0,102.293h-26.36v-66.28h26.36Zm0,101.013h-14.067l-12.293-41.88v-24.414h26.36Zm-37.547-304.319h-26.36v-66.28h26.36Zm0,101.014h-26.36v-66.293h26.36Zm0,102.292h-6.16l-19.453-66.28h25.613Zm-37.546-203.306h-26.36v-66.28h26.36Zm0,96.333-18.094-61.613h18.094Zm830.1-213.213-453.666,1.747-453.666-1.747-3.88,23.52L5764-4500.024s11.307,55.6,41.427,55.6h651.292c30.12,0,41.413-55.6,41.413-55.6l90.48-363.519-3.88-23.52" transform="translate(1580 4400.316)" fill="#446c7b"/>
    <path id="path200" d="M6599.85-4880.521c0,9.374-6.692,16.974-14.946,16.974H5677.226c-8.253,0-14.947-7.6-14.947-16.974v-13.093c0-9.373,6.693-16.973,14.947-16.973H6584.9c8.253,0,14.946,7.6,14.946,16.973v13.093" transform="translate(1580 4400.316)" fill="#3e5a79"/>
  </g>
</svg>
