<svg xmlns="http://www.w3.org/2000/svg" width="3067.896" height="1836.702" viewBox="0 0 3067.896 1836.702">
  <g id="bg3" transform="translate(-4977.472 -2439.948)">
    <path id="path1482" d="M6421.8-1888.769l-158.853,129.16" transform="translate(1580 4400.316)" fill="#3b9d9a"/>
    <path id="path1484" d="M6442.731-1888.782a20.843,20.843,0,0,0-4.693-13.2,20.952,20.952,0,0,0-29.467-3.04l-158.84,129.173a20.923,20.923,0,0,0-3.026,29.453,20.937,20.937,0,0,0,29.453,3.04L6435-1872.515a20.927,20.927,0,0,0,7.733-16.267" transform="translate(1580 4400.316)" fill="#ebe9e8"/>
    <path id="path1486" d="M6458.784-1877.062a16.768,16.768,0,0,0,3.133-23.507l-17.76-23.213a16.775,16.775,0,0,0-23.507-3.12l-23.2,17.76a16.751,16.751,0,0,0-3.134,23.493l17.773,23.213a16.757,16.757,0,0,0,23.494,3.12l23.2-17.746" transform="translate(1580 4400.316)" fill="#131210"/>
    <path id="path1488" d="M6421.8-1354.49l-158.853-129.16" transform="translate(1580 4400.316)" fill="#3b9d9a"/>
    <path id="path1490" d="M6442.731-1354.477a20.816,20.816,0,0,1-4.693,13.2,20.94,20.94,0,0,1-29.467,3.04l-158.84-129.16a20.94,20.94,0,0,1-3.026-29.467,20.937,20.937,0,0,1,29.453-3.04L6435-1370.73a20.881,20.881,0,0,1,7.733,16.253" transform="translate(1580 4400.316)" fill="#fffeff"/>
    <path id="path1492" d="M6458.784-1366.183a16.765,16.765,0,0,1,3.133,23.507l-17.76,23.2a16.765,16.765,0,0,1-23.507,3.133l-23.2-17.76a16.765,16.765,0,0,1-3.134-23.507l17.773-23.213a16.757,16.757,0,0,1,23.494-3.12l23.2,17.76" transform="translate(1580 4400.316)" fill="#131210"/>
    <path id="path1494" d="M3880.817-1449.463v26.24h-98.053v-26.24h98.053" transform="translate(1580 4400.316)" fill="#fffeff"/>
    <path id="path1496" d="M3880.817-1820.516v26.24h-98.053v-26.24h98.053" transform="translate(1580 4400.316)" fill="#ebe9e8"/>
    <path id="path1498" d="M3841.177-1566.183v60.067s-8.76,222.746,175.2,222.746H5887.186s404.8-.013,414.025-250.279h.187v-88.213H3841.177v55.68" transform="translate(1580 4400.316)" fill="#a4c0bc"/>
    <path id="path1500" d="M3841.177-1737.622v115.76H6301.4v-88.227h-.187c-9.227-250.266-414.025-250.279-414.025-250.279H4016.377c-183.959,0-175.2,222.746-175.2,222.746" transform="translate(1580 4400.316)" fill="#7c9fa0"/>
    <path id="path1502" d="M3648.711-1921.542h-81.266c-93.88,0-169.973,79.267-169.973,177.066v122.613H3483.1V-1802.2h288.626v180.333h46.947v-122.613c0-97.8-76.093-177.066-169.96-177.066" transform="translate(1580 4400.316)" fill="#ebe9e8"/>
    <path id="path1504" d="M3771.724-1440.383H3483.1v-181.479h-85.626v122.6c0,97.786,76.093,177.066,169.973,177.066h81.266c93.866,0,169.959-79.28,169.959-177.066v-122.6h-46.947v181.479" transform="translate(1580 4400.316)" fill="#fffeff"/>
    <path id="path1506" d="M3676.018-1561.8a22.847,22.847,0,0,1,22.853,22.853v48.213a22.844,22.844,0,0,1-22.853,22.84h-95.16A22.853,22.853,0,0,1,3558-1490.73v-48.213a22.855,22.855,0,0,1,22.853-22.853h95.16" transform="translate(1580 4400.316)" fill="#fffeff"/>
    <path id="path1508" d="M3659.511-1484.463v69.053h-62.147v-69.053h62.147" transform="translate(1580 4400.316)" fill="#fffeff"/>
    <path id="path1510" d="M3676.018-1777.782a22.847,22.847,0,0,1,22.853,22.853v48.213a22.844,22.844,0,0,1-22.853,22.84h-95.16a22.853,22.853,0,0,1-22.853-22.84v-48.213a22.855,22.855,0,0,1,22.853-22.853h95.16" transform="translate(1580 4400.316)" fill="#ebe9e8"/>
    <path id="path1512" d="M3659.511-1828.329v69.053h-62.147v-69.053h62.147" transform="translate(1580 4400.316)" fill="#ebe9e8"/>
    <path id="path1514" d="M4036.217-1399.317a36.318,36.318,0,0,1,36.32,36.32,36.327,36.327,0,0,1-36.32,36.32,36.33,36.33,0,0,1-36.333-36.32,36.321,36.321,0,0,1,36.333-36.32" transform="translate(1580 4400.316)" fill="#e9d811"/>
    <path id="path1516" d="M4142.683-1587.236a36.321,36.321,0,0,1,36.333,36.32,36.321,36.321,0,0,1-36.333,36.32,36.319,36.319,0,0,1-36.32-36.32,36.319,36.319,0,0,1,36.32-36.32" transform="translate(1580 4400.316)" fill="#3e5a79"/>
    <path id="path1518" d="M4036.217-1744.822a36.33,36.33,0,0,1,36.32,36.333,36.327,36.327,0,0,1-36.32,36.32,36.33,36.33,0,0,1-36.333-36.32,36.333,36.333,0,0,1,36.333-36.333" transform="translate(1580 4400.316)" fill="#e54134"/>
    <path id="path1520" d="M4142.683-1912.035a36.33,36.33,0,0,1,36.333,36.32,36.329,36.329,0,0,1-36.333,36.32,36.327,36.327,0,0,1-36.32-36.32,36.327,36.327,0,0,1,36.32-36.32" transform="translate(1580 4400.316)" fill="#e9d811"/>
    <path id="path1522" d="M4288.123-1406.117a36.31,36.31,0,0,1,36.32,36.32,36.31,36.31,0,0,1-36.32,36.32,36.319,36.319,0,0,1-36.32-36.32,36.319,36.319,0,0,1,36.32-36.32" transform="translate(1580 4400.316)" fill="#fffeff"/>
    <path id="path1524" d="M4394.6-1594.036a36.327,36.327,0,0,1,36.32,36.32,36.319,36.319,0,0,1-36.32,36.32,36.31,36.31,0,0,1-36.32-36.32,36.319,36.319,0,0,1,36.32-36.32" transform="translate(1580 4400.316)" fill="#e54134"/>
    <path id="path1526" d="M4288.123-1751.622a36.322,36.322,0,0,1,36.32,36.333,36.319,36.319,0,0,1-36.32,36.32,36.327,36.327,0,0,1-36.32-36.32,36.33,36.33,0,0,1,36.32-36.333" transform="translate(1580 4400.316)" fill="#6d379d"/>
    <path id="path1528" d="M4394.6-1918.835a36.319,36.319,0,0,1,36.32,36.32,36.327,36.327,0,0,1-36.32,36.32,36.319,36.319,0,0,1-36.32-36.32,36.31,36.31,0,0,1,36.32-36.32" transform="translate(1580 4400.316)" fill="#fffeff"/>
    <path id="path1530" d="M4542.882-1391.49a36.321,36.321,0,0,1,36.333,36.32,36.33,36.33,0,0,1-36.333,36.32,36.327,36.327,0,0,1-36.319-36.32,36.318,36.318,0,0,1,36.319-36.32" transform="translate(1580 4400.316)" fill="#3e5a79"/>
    <path id="path1532" d="M4649.362-1579.409a36.31,36.31,0,0,1,36.32,36.32,36.31,36.31,0,0,1-36.32,36.32,36.318,36.318,0,0,1-36.319-36.32,36.318,36.318,0,0,1,36.319-36.32" transform="translate(1580 4400.316)" fill="#6d379d"/>
    <path id="path1534" d="M4542.882-1737a36.33,36.33,0,0,1,36.333,36.32,36.322,36.322,0,0,1-36.333,36.32,36.319,36.319,0,0,1-36.319-36.32,36.327,36.327,0,0,1,36.319-36.32" transform="translate(1580 4400.316)" fill="#3b9d9a"/>
    <path id="path1536" d="M4649.362-1904.209a36.31,36.31,0,0,1,36.32,36.32,36.318,36.318,0,0,1-36.32,36.32,36.327,36.327,0,0,1-36.319-36.32,36.319,36.319,0,0,1,36.319-36.32" transform="translate(1580 4400.316)" fill="#e9d811"/>
    <path id="path1538" d="M4794.8-1398.29a36.319,36.319,0,0,1,36.32,36.32,36.327,36.327,0,0,1-36.32,36.32,36.327,36.327,0,0,1-36.32-36.32,36.319,36.319,0,0,1,36.32-36.32" transform="translate(1580 4400.316)" fill="#e9d811"/>
    <path id="path1540" d="M4901.281-1586.209a36.327,36.327,0,0,1,36.319,36.32,36.319,36.319,0,0,1-36.319,36.32,36.31,36.31,0,0,1-36.32-36.32,36.318,36.318,0,0,1,36.32-36.32" transform="translate(1580 4400.316)" fill="#3b9d9a"/>
    <path id="path1542" d="M4794.8-1743.8a36.327,36.327,0,0,1,36.32,36.32,36.318,36.318,0,0,1-36.32,36.32,36.318,36.318,0,0,1-36.32-36.32,36.327,36.327,0,0,1,36.32-36.32" transform="translate(1580 4400.316)" fill="#e54134"/>
    <path id="path1544" d="M4901.281-1911.009a36.319,36.319,0,0,1,36.319,36.32,36.319,36.319,0,0,1-36.319,36.32,36.31,36.31,0,0,1-36.32-36.32,36.31,36.31,0,0,1,36.32-36.32" transform="translate(1580 4400.316)" fill="#3e5a79"/>
    <path id="path1546" d="M5020.174-1405.37a36.318,36.318,0,0,1,36.319,36.32,36.31,36.31,0,0,1-36.319,36.32,36.319,36.319,0,0,1-36.32-36.32,36.327,36.327,0,0,1,36.32-36.32" transform="translate(1580 4400.316)" fill="#fffeff"/>
    <path id="path1548" d="M5126.654-1593.29a36.322,36.322,0,0,1,36.32,36.333,36.319,36.319,0,0,1-36.32,36.32,36.327,36.327,0,0,1-36.319-36.32,36.33,36.33,0,0,1,36.319-36.333" transform="translate(1580 4400.316)" fill="#e54134"/>
    <path id="path1550" d="M5020.174-1750.862a36.31,36.31,0,0,1,36.319,36.32,36.318,36.318,0,0,1-36.319,36.32,36.327,36.327,0,0,1-36.32-36.32,36.319,36.319,0,0,1,36.32-36.32" transform="translate(1580 4400.316)" fill="#6d379d"/>
    <path id="path1552" d="M5126.654-1918.089a36.319,36.319,0,0,1,36.32,36.32,36.322,36.322,0,0,1-36.32,36.333,36.33,36.33,0,0,1-36.319-36.333,36.327,36.327,0,0,1,36.319-36.32" transform="translate(1580 4400.316)" fill="#e9d811"/>
    <path id="path1554" d="M5272.094-1412.17a36.327,36.327,0,0,1,36.32,36.32,36.33,36.33,0,0,1-36.32,36.333,36.333,36.333,0,0,1-36.333-36.333,36.33,36.33,0,0,1,36.333-36.32" transform="translate(1580 4400.316)" fill="#3e5a79"/>
    <path id="path1556" d="M5378.573-1600.089a36.327,36.327,0,0,1,36.32,36.32,36.33,36.33,0,0,1-36.32,36.333,36.322,36.322,0,0,1-36.32-36.333,36.319,36.319,0,0,1,36.32-36.32" transform="translate(1580 4400.316)" fill="#6d379d"/>
    <path id="path1558" d="M5272.094-1757.662a36.319,36.319,0,0,1,36.32,36.32,36.319,36.319,0,0,1-36.32,36.32,36.322,36.322,0,0,1-36.333-36.32,36.322,36.322,0,0,1,36.333-36.32" transform="translate(1580 4400.316)" fill="#3b9d9a"/>
    <path id="path1560" d="M5378.573-1924.889a36.327,36.327,0,0,1,36.32,36.32,36.33,36.33,0,0,1-36.32,36.333,36.322,36.322,0,0,1-36.32-36.333,36.319,36.319,0,0,1,36.32-36.32" transform="translate(1580 4400.316)" fill="#fffeff"/>
    <path id="path1562" d="M5518.506-1393.557a36.327,36.327,0,0,1,36.32,36.32,36.319,36.319,0,0,1-36.32,36.32,36.31,36.31,0,0,1-36.32-36.32,36.318,36.318,0,0,1,36.32-36.32" transform="translate(1580 4400.316)" fill="#e9d811"/>
    <path id="path1564" d="M5624.986-1581.476a36.327,36.327,0,0,1,36.319,36.32,36.33,36.33,0,0,1-36.319,36.333,36.333,36.333,0,0,1-36.333-36.333,36.33,36.33,0,0,1,36.333-36.32" transform="translate(1580 4400.316)" fill="#3b9d9a"/>
    <path id="path1566" d="M5518.506-1739.049a36.319,36.319,0,0,1,36.32,36.32,36.327,36.327,0,0,1-36.32,36.32,36.318,36.318,0,0,1-36.32-36.32,36.31,36.31,0,0,1,36.32-36.32" transform="translate(1580 4400.316)" fill="#e54134"/>
    <path id="path1568" d="M5624.986-1906.275a36.327,36.327,0,0,1,36.319,36.32,36.318,36.318,0,0,1-36.319,36.32,36.322,36.322,0,0,1-36.333-36.32,36.33,36.33,0,0,1,36.333-36.32" transform="translate(1580 4400.316)" fill="#3e5a79"/>
    <path id="path1570" d="M5770.412-1400.357a36.319,36.319,0,0,1,36.32,36.32,36.319,36.319,0,0,1-36.32,36.32,36.31,36.31,0,0,1-36.319-36.32,36.31,36.31,0,0,1,36.319-36.32" transform="translate(1580 4400.316)" fill="#fffeff"/>
    <path id="path1572" d="M5876.893-1588.276a36.319,36.319,0,0,1,36.319,36.32,36.31,36.31,0,0,1-36.319,36.32,36.318,36.318,0,0,1-36.32-36.32,36.327,36.327,0,0,1,36.32-36.32" transform="translate(1580 4400.316)" fill="#e54134"/>
    <path id="path1574" d="M5770.412-1745.862a36.33,36.33,0,0,1,36.32,36.333,36.328,36.328,0,0,1-36.32,36.32,36.318,36.318,0,0,1-36.319-36.32,36.321,36.321,0,0,1,36.319-36.333" transform="translate(1580 4400.316)" fill="#6d379d"/>
    <path id="path1576" d="M5876.893-1913.075a36.319,36.319,0,0,1,36.319,36.32,36.31,36.31,0,0,1-36.319,36.32,36.318,36.318,0,0,1-36.32-36.32,36.327,36.327,0,0,1,36.32-36.32" transform="translate(1580 4400.316)" fill="#e9d811"/>
    <path id="path1578" d="M6081.838-1440.156a36.319,36.319,0,0,1,36.32,36.32,36.327,36.327,0,0,1-36.32,36.32,36.328,36.328,0,0,1-36.32-36.32,36.319,36.319,0,0,1,36.32-36.32" transform="translate(1580 4400.316)" fill="#3e5a79"/>
    <path id="path1580" d="M6188.318-1628.076a36.318,36.318,0,0,1,36.32,36.32,36.318,36.318,0,0,1-36.32,36.32,36.318,36.318,0,0,1-36.319-36.32,36.318,36.318,0,0,1,36.319-36.32" transform="translate(1580 4400.316)" fill="#e9d811"/>
    <path id="path1582" d="M6081.838-1785.662a36.327,36.327,0,0,1,36.32,36.32,36.33,36.33,0,0,1-36.32,36.333,36.33,36.33,0,0,1-36.32-36.333,36.327,36.327,0,0,1,36.32-36.32" transform="translate(1580 4400.316)" fill="#e54134"/>
    <path id="path1584" d="M5883.372-1052.024h-1.12l-3.187,1.693c-13.319,7.587-75.759,71.653-127.4,185.786-.347,1.08-.733,2.147-1.08,3.213,0,0,26.467,68.986,64.04,109.746l16.934,360.372a46.1,46.1,0,0,0,46.107,46.107c1.186,0,2.347-.08,3.506-.173a46.07,46.07,0,0,0,42.6-45.933l17.053-353.372c41.186-39.253,70.933-116.746,70.933-116.746-.853-2.68-1.773-5.36-2.72-8.04a682.211,682.211,0,0,0-52.974-98.76,683.708,683.708,0,0,0-65.8-79.64,31.781,31.781,0,0,0-3.707-2.56l-3.186-1.693" transform="translate(1580 4400.316)" fill="#e7ec8e"/>
    <path id="path1586" d="M5877.666-345.106a46.1,46.1,0,0,1-46.107-46.107l-16.934-360.373c-37.573-40.76-64.04-109.746-64.04-109.746.347-1.067.733-2.133,1.08-3.213-37.467,82.84-69.267,192.04-72.453,325.159-.041,1.027-.054,2.067-.08,3.093q-.14,6.46-.2,13.027c-.014,1.533-.026,3.08-.04,4.627-.36,62.813,35.813,206.159,47.28,285.706h155V-345.279c-1.16.093-2.32.173-3.507.173" transform="translate(1580 4400.316)" fill="#fffeff"/>
    <path id="path1588" d="M5890.266-1047.771a683.708,683.708,0,0,1,65.8,79.64c-28.693-44.013-54.293-70.693-65.8-79.64" transform="translate(1580 4400.316)" fill="#ebe9e8"/>
    <path id="path1590" d="M6077.345-534.279c-.041-4.373-.107-8.72-.187-13.013-.04-1.04-.053-2.08-.081-3.107-3.173-132.04-32.853-238.613-68.04-318.972.947,2.68,1.867,5.36,2.719,8.04,0,0-29.747,77.493-70.933,116.746l-17.053,353.372a46.07,46.07,0,0,1-42.6,45.933v112.346h158.267c11.48-79.546,38.307-233.906,37.946-296.719,0-1.547-.026-3.093-.04-4.627" transform="translate(1580 4400.316)" fill="#ebe9e8"/>
    <path id="path1592" d="M5777.079-566.719a102.831,102.831,0,0,0,102.827,102.826V-669.558a102.833,102.833,0,0,0-102.827,102.84" transform="translate(1580 4400.316)" fill="#e54134"/>
    <path id="path1594" d="M5879.905-669.558v205.666a102.83,102.83,0,0,0,102.827-102.826,102.833,102.833,0,0,0-102.827-102.84" transform="translate(1580 4400.316)" fill="#d03731"/>
    <path id="path1596" d="M5923.772-391.212l17.053-353.373c41.186-39.253,70.933-116.746,70.933-116.746-30.44-95.626-118.839-184.12-130-195.026l-.013-1.133s-.24.227-.573.56v711.652a46.07,46.07,0,0,0,42.6-45.933" transform="translate(1580 4400.316)" fill="#2d364d"/>
    <path id="path1598" d="M5880.572-1056.357c-11.147,10.907-99.56,99.4-129.986,195.026,0,0,26.467,68.986,64.04,109.746l16.934,360.372a46.1,46.1,0,0,0,46.107,46.107c1.186,0,2.347-.08,3.506-.173v-711.652c-.346-.333-.586-.56-.586-.56l-.014,1.133" transform="translate(1580 4400.316)" fill="#3e5a79"/>
    <path id="path1600" d="M5880.466-1070.5l-3.973,2.12c-28.707,16.333-200.693,148.306-210.173,543.519-.04,1.28-.066,2.573-.093,3.867q-.179,8.06-.253,16.267c-.027,1.92-.04,3.84-.053,5.76-.44,78.426,5.373,166.746,19.692,266.039h-.413v85.986h194.559v-85.986H5726.173c-11.466-79.546-47.64-222.893-47.28-285.706.014-1.547.026-3.093.04-4.627q.06-6.56.2-13.027c.026-1.027.04-2.067.08-3.093C5682.4-672.5,5714.2-781.7,5751.666-864.544c31.36-94.386,117.88-181.026,128.907-191.813l.014-1.133s.24.227.586.56V-1070.5h-.707" transform="translate(1580 4400.316)" fill="#4f7d8a"/>
    <path id="path1602" d="M6096.411-498.972q-.019-2.88-.04-5.76c-.053-5.48-.147-10.893-.253-16.267-.026-1.293-.053-2.587-.093-3.867-9.494-395.212-181.466-527.185-210.187-543.519l-3.959-2.12h-.707v13.573c.333-.333.574-.56.574-.56l.014,1.133c1.52,1.48,4.493,4.427,8.506,8.587,11.507,8.947,37.106,35.627,65.8,79.64,20.52,29.253,40.494,63.373,52.973,98.76,35.187,80.36,64.867,186.933,68.041,318.973.026,1.027.04,2.067.08,3.107.08,4.293.147,8.64.187,13.013.013,1.533.04,3.08.04,4.627.36,62.813-26.467,217.173-37.947,296.719H5879.76v85.986h195.707v-85.986h1.252c14.32-99.293,20.147-187.613,19.693-266.039" transform="translate(1580 4400.316)" fill="#446c7b"/>
    <path id="path1604" d="M4449.163-249.453v-3.093a17.424,17.424,0,0,1,17.426-17.427h763.385v-22.133a17.429,17.429,0,0,0-17.414-17.427H4442.1a17.432,17.432,0,0,0-17.426,17.427v151.013a17.424,17.424,0,0,0,17.426,17.427H5212.56a17.421,17.421,0,0,0,17.414-17.427v-90.946H4466.589a17.421,17.421,0,0,1-17.426-17.413" transform="translate(1580 4400.316)" fill="#3b9d9a"/>
    <path id="path1606" d="M4466.589-269.973a17.424,17.424,0,0,0-17.426,17.427v3.093a17.421,17.421,0,0,0,17.426,17.413h763.385v-37.933H4466.589" transform="translate(1580 4400.316)" fill="#48b2a8"/>
    <path id="path1610" d="M4449.163-453.252v-3.093a17.412,17.412,0,0,1,17.426-17.413h763.385v-22.133a17.421,17.421,0,0,0-17.414-17.427H4442.1a17.424,17.424,0,0,0-17.426,17.427v151.013a17.421,17.421,0,0,0,17.426,17.413H5212.56a17.418,17.418,0,0,0,17.414-17.413v-90.946H4466.589a17.424,17.424,0,0,1-17.426-17.427" transform="translate(1580 4400.316)" fill="#6d379d"/>
    <path id="path1612" d="M4466.589-473.759a17.412,17.412,0,0,0-17.426,17.413v3.093a17.424,17.424,0,0,0,17.426,17.427h763.385v-37.933H4466.589" transform="translate(1580 4400.316)" fill="#834baa"/>
    <path id="path1614" d="M5188.067-359.439a17.424,17.424,0,0,0,17.427-17.427v-3.08a17.424,17.424,0,0,0-17.427-17.427h-763.4v37.933h763.4" transform="translate(1580 4400.316)" fill="#834baa"/>
    <path id="path1616" d="M4702.722-249.453v-3.093a17.424,17.424,0,0,1,17.426-17.427h763.4v-22.133a17.432,17.432,0,0,0-17.426-17.427H4695.655a17.441,17.441,0,0,0-17.427,17.427v151.013a17.433,17.433,0,0,0,17.427,17.427H5466.12a17.424,17.424,0,0,0,17.426-17.427v-90.946h-763.4a17.421,17.421,0,0,1-17.426-17.413" transform="translate(1580 4400.316)" fill="#fbcd35"/>
    <path id="path1618" d="M4720.148-269.973a17.424,17.424,0,0,0-17.426,17.427v3.093a17.421,17.421,0,0,0,17.426,17.413h763.4v-37.933h-763.4" transform="translate(1580 4400.316)" fill="#d7ab2e"/>
    <path id="path1622" d="M4702.722-453.252v-3.093a17.413,17.413,0,0,1,17.426-17.413h763.4v-22.133a17.424,17.424,0,0,0-17.426-17.427H4695.655a17.432,17.432,0,0,0-17.427,17.427v151.013a17.43,17.43,0,0,0,17.427,17.413H5466.12a17.421,17.421,0,0,0,17.426-17.413v-90.946h-763.4a17.424,17.424,0,0,1-17.426-17.427" transform="translate(1580 4400.316)" fill="#ef3b4d"/>
    <path id="path1624" d="M4720.148-473.759a17.413,17.413,0,0,0-17.426,17.413v3.093a17.424,17.424,0,0,0,17.426,17.427h763.4v-37.933h-763.4" transform="translate(1580 4400.316)" fill="#da313f"/>
    <path id="path1626" d="M5441.627-359.439a17.424,17.424,0,0,0,17.426-17.427v-3.08a17.424,17.424,0,0,0-17.426-17.427h-763.4v37.933h763.4" transform="translate(1580 4400.316)" fill="#da313f"/>
    <path id="path1628" d="M4465.069-650.372v-3.093a17.424,17.424,0,0,1,17.426-17.427H5245.88v-22.133a17.421,17.421,0,0,0-17.426-17.413H4457.989a17.418,17.418,0,0,0-17.413,17.413v151.013a17.421,17.421,0,0,0,17.413,17.427h770.465a17.424,17.424,0,0,0,17.426-17.427v-90.933H4482.5a17.432,17.432,0,0,1-17.426-17.427" transform="translate(1580 4400.316)" fill="#3e5a79"/>
    <path id="path1630" d="M4482.5-670.892a17.424,17.424,0,0,0-17.426,17.427v3.093a17.432,17.432,0,0,0,17.426,17.427H5245.88v-37.947H4482.5" transform="translate(1580 4400.316)" fill="#4d718e"/>
    <path id="path1632" d="M5203.974-556.559a17.433,17.433,0,0,0,17.427-17.427v-3.093a17.441,17.441,0,0,0-17.427-17.427h-763.4v37.947h763.4" transform="translate(1580 4400.316)" fill="#4d718e"/>
    <path id="path1634" d="M4465.069-854.171v-3.093a17.412,17.412,0,0,1,17.426-17.413H5245.88v-22.133a17.424,17.424,0,0,0-17.426-17.427H4457.989a17.421,17.421,0,0,0-17.413,17.427V-745.8a17.418,17.418,0,0,0,17.413,17.413h770.465A17.421,17.421,0,0,0,5245.88-745.8v-90.946H4482.5a17.424,17.424,0,0,1-17.426-17.427" transform="translate(1580 4400.316)" fill="#7c9fa0"/>
    <path id="path1636" d="M4482.5-874.678a17.412,17.412,0,0,0-17.426,17.413v3.093a17.424,17.424,0,0,0,17.426,17.427H5245.88v-37.933H4482.5" transform="translate(1580 4400.316)" fill="#a4c0bc"/>
    <path id="path1638" d="M5203.974-760.358a17.43,17.43,0,0,0,17.427-17.413v-3.093a17.433,17.433,0,0,0-17.427-17.427h-763.4v37.933h763.4" transform="translate(1580 4400.316)" fill="#a4c0bc"/>
    <path id="path1640" d="M4718.628-650.372v-3.093a17.424,17.424,0,0,1,17.427-17.427h763.384v-22.133a17.409,17.409,0,0,0-17.413-17.413H4711.561a17.421,17.421,0,0,0-17.426,17.413v151.013a17.424,17.424,0,0,0,17.426,17.427h770.465a17.413,17.413,0,0,0,17.413-17.427v-90.933H4736.055a17.432,17.432,0,0,1-17.427-17.427" transform="translate(1580 4400.316)" fill="#cdccca"/>
    <path id="path1642" d="M4736.055-670.892a17.424,17.424,0,0,0-17.427,17.427v3.093a17.432,17.432,0,0,0,17.427,17.427h763.384v-37.947H4736.055" transform="translate(1580 4400.316)" fill="#fff"/>
    <path id="path1644" d="M5457.533-556.559a17.424,17.424,0,0,0,17.427-17.427v-3.093a17.432,17.432,0,0,0-17.427-17.427h-763.4v37.947h763.4" transform="translate(1580 4400.316)" fill="#fff"/>
    <path id="path1646" d="M4718.628-854.171v-3.093a17.412,17.412,0,0,1,17.427-17.413h763.384v-22.133a17.412,17.412,0,0,0-17.413-17.427H4711.561a17.424,17.424,0,0,0-17.426,17.427V-745.8a17.421,17.421,0,0,0,17.426,17.413h770.465a17.41,17.41,0,0,0,17.413-17.413v-90.946H4736.055a17.424,17.424,0,0,1-17.427-17.427" transform="translate(1580 4400.316)" fill="#555658"/>
    <path id="path1648" d="M4736.055-874.678a17.412,17.412,0,0,0-17.427,17.413v3.093a17.424,17.424,0,0,0,17.427,17.427h763.384v-37.933H4736.055" transform="translate(1580 4400.316)" fill="#7e7f80"/>
    <path id="path1650" d="M5457.533-760.358a17.421,17.421,0,0,0,17.427-17.413v-3.093a17.424,17.424,0,0,0-17.427-17.427h-763.4v37.933h763.4" transform="translate(1580 4400.316)" fill="#7e7f80"/>
  </g>
</svg>
